<svg width="24" height="25" viewBox="0 0 24 25" fill="none" xmlns="http://www.w3.org/2000/svg">
<g id="vuesax/bulk/tick-circle">
<g id="tick-circle">
<path id="Vector" d="M21.5 12.5C21.5 17.7467 17.2467 22 12 22C6.75329 22 2.5 17.7467 2.5 12.5C2.5 7.25329 6.75329 3 12 3C17.2467 3 21.5 7.25329 21.5 12.5Z" stroke="#15D43F"/>
<path id="Vector_2" d="M10.58 16.08C10.38 16.08 10.19 16 10.05 15.86L7.22 13.03C6.93 12.74 6.93 12.26 7.22 11.97C7.51 11.68 7.99 11.68 8.28 11.97L10.58 14.27L15.72 9.12998C16.01 8.83998 16.49 8.83998 16.78 9.12998C17.07 9.41998 17.07 9.89998 16.78 10.19L11.11 15.86C10.97 16 10.78 16.08 10.58 16.08Z" fill="#15D43F"/>
</g>
</g>
</svg>
