<svg width="24" height="24" viewBox="0 0 24 24" fill="none" xmlns="http://www.w3.org/2000/svg">
<g id="Frame" clip-path="url(#clip0_82_84)">
<g id="Group">
<path id="Vector" d="M23.2606 19.8851H0.766885C0.570758 19.8851 0.382663 19.963 0.24398 20.1017C0.105297 20.2404 0.0273861 20.4285 0.0273861 20.6246C0.0273861 20.8208 0.105297 21.0088 0.24398 21.1475C0.382663 21.2862 0.570758 21.3641 0.766885 21.3641H23.2606C23.4567 21.3641 23.6448 21.2862 23.7835 21.1475C23.9222 21.0088 24.0001 20.8208 24.0001 20.6246C24.0001 20.4285 23.9222 20.2404 23.7835 20.1017C23.6448 19.963 23.4567 19.8851 23.2606 19.8851ZM4.24421 12.8861C4.33401 12.9951 4.45317 13.0762 4.58757 13.1196C4.72198 13.163 4.86601 13.1671 5.00264 13.1312L9.89812 11.8471L9.47957 15.0434C9.46585 15.1477 9.47458 15.2538 9.50515 15.3545C9.53573 15.4552 9.58746 15.5482 9.65688 15.6273C9.7263 15.7064 9.81181 15.7698 9.90769 15.8132C10.0036 15.8565 10.1076 15.879 10.2129 15.8789C10.2866 15.8789 10.36 15.8679 10.4305 15.8462L13.0171 15.0495C13.179 14.9996 13.3188 14.8958 13.4133 14.7553L16.6598 9.92486L19.3772 8.79934C20.8872 8.17382 22.033 7.52355 22.7826 6.86658C24.104 5.70853 24.0483 4.6612 23.7688 3.98668C23.5136 3.37043 22.8911 2.63596 21.3752 2.63596C20.3316 2.63596 18.9471 2.99023 17.2605 3.6889L6.43224 8.17392L3.31609 5.96656C3.21375 5.89406 3.09465 5.84878 2.97 5.83498C2.84534 5.82118 2.71922 5.83932 2.60351 5.88768L0.454521 6.78543C0.348054 6.82992 0.253474 6.8987 0.178345 6.98628C0.103217 7.07386 0.0496253 7.1778 0.0218562 7.2898C-0.00591281 7.40179 -0.00708849 7.51873 0.0184232 7.63127C0.0439349 7.7438 0.095426 7.8488 0.168778 7.93787L4.24421 12.8861ZM2.79558 7.41036L5.91055 9.61683C6.01259 9.68908 6.13127 9.7343 6.25553 9.74825C6.37978 9.76219 6.50554 9.74443 6.62106 9.6966L17.8263 5.0552C19.3116 4.44004 20.5386 4.11486 21.3751 4.11486C22.221 4.11486 22.3528 4.43284 22.4024 4.55254C22.4535 4.67599 22.6092 5.05185 21.8078 5.75428C21.1887 6.29677 20.1525 6.87733 18.8112 7.43284L15.8876 8.64385C15.7531 8.69956 15.638 8.79375 15.5568 8.9146L12.3318 13.7131L11.0955 14.0938L11.5073 10.9488C11.5231 10.8286 11.509 10.7063 11.4664 10.5928C11.4238 10.4793 11.3539 10.378 11.263 10.2978C11.172 10.2177 11.0627 10.1611 10.9447 10.1332C10.8267 10.1052 10.7036 10.1067 10.5863 10.1375L5.08497 11.5806L1.94348 7.76631L2.79558 7.41036Z" fill="#050001"/>
</g>
</g>
<defs>
<clipPath id="clip0_82_84">
<rect width="24" height="24" fill="white"/>
</clipPath>
</defs>
</svg>
