<svg width="24" height="25" viewBox="0 0 24 25" fill="none" xmlns="http://www.w3.org/2000/svg">
<path d="M12 9.99854V13.7485M21 12.9985C21 14.1804 20.7672 15.3508 20.3149 16.4427C19.8626 17.5346 19.1997 18.5268 18.364 19.3625C17.5282 20.1982 16.5361 20.8612 15.4442 21.3135C14.3522 21.7657 13.1819 21.9985 12 21.9985C10.8181 21.9985 9.64778 21.7657 8.55585 21.3135C7.46392 20.8612 6.47177 20.1982 5.63604 19.3625C4.80031 18.5268 4.13738 17.5346 3.68508 16.4427C3.23279 15.3508 3 14.1804 3 12.9985C3 10.6116 3.94821 8.3224 5.63604 6.63457C7.32387 4.94675 9.61305 3.99854 12 3.99854C14.3869 3.99854 16.6761 4.94675 18.364 6.63457C20.0518 8.3224 21 10.6116 21 12.9985ZM12 16.7485H12.008V16.7565H12V16.7485Z" stroke="#050001" stroke-width="1.5" stroke-linecap="round" stroke-linejoin="round"/>
</svg>
