<svg width="24" height="24" viewBox="0 0 24 24" fill="none" xmlns="http://www.w3.org/2000/svg">
<g id="hotel 1" clip-path="url(#clip0_117_294)">
<g id="g804">
<g id="g806">
<g id="Clip path group">
<mask id="mask0_117_294" style="mask-type:luminance" maskUnits="userSpaceOnUse" x="0" y="0" width="24" height="24">
<g id="clipPath812">
<path id="path810" d="M0 1.90735e-06H24V24H0V1.90735e-06Z" fill="white"/>
</g>
</mask>
<g mask="url(#mask0_117_294)">
<g id="g808">
<path id="path814" d="M4.46875 23.2969H19.5313V4.46874H4.46875V23.2969Z" stroke="black" stroke-width="1.5" stroke-miterlimit="10" stroke-linecap="round" stroke-linejoin="round"/>
<g id="g816">
<path id="path818" d="M19.5313 2.20938C19.5313 1.80986 19.3727 1.42689 19.09 1.14447C18.8075 0.861672 18.4246 0.703141 18.025 0.703141H5.97503C5.57547 0.703141 5.1925 0.861672 4.91008 1.14447C4.62733 1.42689 4.46875 1.80986 4.46875 2.20938V4.46875H19.5313V2.20938Z" stroke="black" stroke-width="1.5" stroke-miterlimit="10" stroke-linecap="round" stroke-linejoin="round"/>
</g>
<path id="path820" d="M10.4938 23.2969H13.5063V18.7781H10.4938V23.2969Z" stroke="black" stroke-width="1.5" stroke-miterlimit="10" stroke-linecap="round" stroke-linejoin="round"/>
<g id="g822">
<path id="path824" d="M7.4812 7.48125V8.23434" stroke="black" stroke-width="1.5" stroke-miterlimit="10" stroke-linecap="round" stroke-linejoin="round"/>
</g>
<g id="g826">
<path id="path828" d="M10.4938 7.48125V8.23434" stroke="black" stroke-width="1.5" stroke-miterlimit="10" stroke-linecap="round" stroke-linejoin="round"/>
</g>
<g id="g830">
<path id="path832" d="M13.5062 7.48125V8.23434" stroke="black" stroke-width="1.5" stroke-miterlimit="10" stroke-linecap="round" stroke-linejoin="round"/>
</g>
<g id="g834">
<path id="path836" d="M16.5188 7.48125V8.23434" stroke="black" stroke-width="1.5" stroke-miterlimit="10" stroke-linecap="round" stroke-linejoin="round"/>
</g>
<g id="g838">
<path id="path840" d="M7.4812 11.2469V12" stroke="black" stroke-width="1.5" stroke-miterlimit="10" stroke-linecap="round" stroke-linejoin="round"/>
</g>
<g id="g842">
<path id="path844" d="M10.4938 11.2469V12" stroke="black" stroke-width="1.5" stroke-miterlimit="10" stroke-linecap="round" stroke-linejoin="round"/>
</g>
<g id="g846">
<path id="path848" d="M13.5062 11.2469V12" stroke="black" stroke-width="1.5" stroke-miterlimit="10" stroke-linecap="round" stroke-linejoin="round"/>
</g>
<g id="g850">
<path id="path852" d="M16.5188 11.2469V12" stroke="black" stroke-width="1.5" stroke-miterlimit="10" stroke-linecap="round" stroke-linejoin="round"/>
</g>
<g id="g854">
<path id="path856" d="M7.4812 15.0125V15.7656" stroke="black" stroke-width="1.5" stroke-miterlimit="10" stroke-linecap="round" stroke-linejoin="round"/>
</g>
<g id="g858">
<path id="path860" d="M10.4938 15.0125V15.7656" stroke="black" stroke-width="1.5" stroke-miterlimit="10" stroke-linecap="round" stroke-linejoin="round"/>
</g>
<g id="g862">
<path id="path864" d="M13.5062 15.0125V15.7656" stroke="black" stroke-width="1.5" stroke-miterlimit="10" stroke-linecap="round" stroke-linejoin="round"/>
</g>
<g id="g866">
<path id="path868" d="M16.5188 15.0125V15.7656" stroke="black" stroke-width="1.5" stroke-miterlimit="10" stroke-linecap="round" stroke-linejoin="round"/>
</g>
<g id="g870">
<path id="path872" d="M7.4812 18.7781V19.5312" stroke="black" stroke-width="1.5" stroke-miterlimit="10" stroke-linecap="round" stroke-linejoin="round"/>
</g>
<g id="g874">
<path id="path876" d="M16.5188 18.7781V19.5312" stroke="black" stroke-width="1.5" stroke-miterlimit="10" stroke-linecap="round" stroke-linejoin="round"/>
</g>
<g id="g878">
<path id="path880" d="M0.703125 23.2969H23.2969" stroke="black" stroke-width="1.5" stroke-miterlimit="10" stroke-linecap="round" stroke-linejoin="round"/>
</g>
</g>
</g>
</g>
</g>
</g>
</g>
<defs>
<clipPath id="clip0_117_294">
<rect width="24" height="24" fill="white"/>
</clipPath>
</defs>
</svg>
